<?xml version="1.0" encoding="utf-8"?>
<!-- Generator: Adobe Illustrator 18.1.0, SVG Export Plug-In . SVG Version: 6.00 Build 0)  -->
<!DOCTYPE svg PUBLIC "-//W3C//DTD SVG 1.0//EN" "http://www.w3.org/TR/2001/REC-SVG-20010904/DTD/svg10.dtd">
<svg version="1.0" id="Layer_1" xmlns="http://www.w3.org/2000/svg" xmlns:xlink="http://www.w3.org/1999/xlink" x="0px" y="0px"
	 viewBox="0 0 32 32" enable-background="new 0 0 32 32" xml:space="preserve">
<path fill="#FFFFFF" d="M16,1c8.3,0,15,6.7,15,15c0,8.3-6.7,15-15,15C7.7,31,1,24.3,1,16C1,7.7,7.7,1,16,1 M16,0C7.2,0,0,7.2,0,16
	c0,8.8,7.2,16,16,16c8.8,0,16-7.2,16-16C32,7.2,24.8,0,16,0L16,0z"/>
<path fill-rule="evenodd" clip-rule="evenodd" fill="#FFFFFF" d="M19.4,9.8h-1.9c0,0-2.9-0.3-2.9,2.8c0,0.7,0,1.3,0,1.3h-1.2l0,2.4
	h1.2v6.4h2.8v-6.4h1.6l0.4-2.4h-2v-1c0,0-0.2-0.8,0.8-0.8h1.2L19.4,9.8z"/>
</svg>
