<?xml version="1.0" encoding="utf-8"?>
<!-- Generator: Adobe Illustrator 18.1.0, SVG Export Plug-In . SVG Version: 6.00 Build 0)  -->
<!DOCTYPE svg PUBLIC "-//W3C//DTD SVG 1.0//EN" "http://www.w3.org/TR/2001/REC-SVG-20010904/DTD/svg10.dtd">
<svg version="1.0" id="Layer_1" xmlns="http://www.w3.org/2000/svg" xmlns:xlink="http://www.w3.org/1999/xlink" x="0px" y="0px"
	 viewBox="0 0 32 32" enable-background="new 0 0 32 32" xml:space="preserve">
<path fill="#FFFFFF" d="M16,1c8.3,0,15,6.7,15,15c0,8.3-6.7,15-15,15C7.7,31,1,24.3,1,16C1,7.7,7.7,1,16,1 M16,0C7.2,0,0,7.2,0,16
	c0,8.8,7.2,16,16,16c8.8,0,16-7.2,16-16C32,7.2,24.8,0,16,0L16,0z"/>
<path fill="#FFFFFF" d="M22.2,16.1v-2h2v-0.8h-2v-2h-0.8v2h-2v0.8h2v2H22.2z"/>
<path fill="#FFFFFF" d="M17,11.3c0.1,0.1,0.2,0.1,0.3,0.2c0.1,0.1,0.2,0.3,0.3,0.4c0.1,0.2,0.2,0.3,0.3,0.6c0.1,0.2,0.1,0.5,0.1,0.7
	c0,0.5-0.1,0.9-0.3,1.3c-0.1,0.2-0.2,0.3-0.3,0.4c-0.1,0.1-0.3,0.3-0.4,0.4c-0.1,0.1-0.2,0.2-0.2,0.3c-0.1,0.1-0.1,0.3-0.1,0.4
	c0,0.2,0,0.3,0.1,0.4c0.1,0.1,0.1,0.2,0.2,0.2l0.5,0.4c0.3,0.3,0.6,0.5,0.8,0.8c0.2,0.3,0.3,0.7,0.3,1.2c0,0.7-0.3,1.3-0.9,1.9
	c-0.6,0.6-1.6,0.9-2.8,0.9c-1,0-1.8-0.2-2.3-0.7c-0.5-0.4-0.8-0.9-0.8-1.4c0-0.3,0.1-0.6,0.2-0.9c0.2-0.3,0.5-0.6,0.9-0.9
	c0.5-0.3,1-0.5,1.5-0.5c0.5-0.1,0.9-0.1,1.3-0.1c-0.1-0.1-0.2-0.3-0.3-0.4c-0.1-0.2-0.1-0.3-0.1-0.6c0-0.1,0-0.2,0.1-0.3
	c0-0.1,0.1-0.2,0.1-0.3c-0.2,0-0.3,0-0.5,0c-0.8,0-1.4-0.3-1.8-0.7c-0.4-0.4-0.6-1-0.6-1.6c0-0.7,0.3-1.4,0.9-2
	c0.4-0.3,0.8-0.6,1.3-0.7c0.4-0.1,0.9-0.2,1.2-0.2h2.9l-0.9,0.7H17z M15.5,15.5c0.4,0,0.7-0.2,1-0.4c0.1-0.2,0.2-0.4,0.2-0.6
	c0-0.2,0-0.4,0-0.5c0-0.6-0.1-1.2-0.4-1.7c-0.1-0.3-0.3-0.5-0.5-0.7c-0.2-0.2-0.5-0.3-0.8-0.3c-0.4,0-0.7,0.2-1,0.5
	c-0.2,0.3-0.3,0.7-0.3,1.1c0,0.5,0.2,1.1,0.5,1.7c0.1,0.3,0.3,0.5,0.6,0.7C14.9,15.4,15.2,15.5,15.5,15.5L15.5,15.5z M17.5,19.8
	c0-0.4-0.1-0.7-0.4-1c-0.3-0.3-0.7-0.6-1.2-1c-0.1,0-0.2,0-0.3,0c-0.1,0-0.3,0-0.6,0c-0.3,0-0.6,0.1-0.9,0.2c-0.1,0-0.2,0.1-0.3,0.1
	c-0.1,0.1-0.3,0.1-0.4,0.3c-0.1,0.1-0.2,0.3-0.3,0.4c-0.1,0.2-0.2,0.4-0.2,0.7c0,0.5,0.2,0.9,0.7,1.3c0.4,0.3,1,0.5,1.8,0.5
	c0.7,0,1.2-0.2,1.6-0.5C17.4,20.6,17.5,20.2,17.5,19.8L17.5,19.8z"/>
</svg>
